<?xml version="1.0" encoding="utf-8"?>
<!-- Generator: Adobe Illustrator 25.0.1, SVG Export Plug-In . SVG Version: 6.00 Build 0)  -->
<svg version="1.1" id="Layer_1" xmlns="http://www.w3.org/2000/svg" xmlns:xlink="http://www.w3.org/1999/xlink" x="0px" y="0px"
	 viewBox="0 0 48 48" style="enable-background:new 0 0 48 48;" xml:space="preserve">
<style type="text/css">
	.st0{fill:#4BFF00;}
	.st1{fill:#FFFFFF;}
</style>
<g>
	<circle class="st0" cx="23.9" cy="10.5" r="6.5"/>
	<circle class="st0" cx="9.9" cy="37.5" r="6.1"/>
	<circle class="st0" cx="38.1" cy="37.5" r="6.1"/>
	<path class="st1" d="M24,44c-2.1,0-4.2-0.4-6.2-1.1c-0.5-0.2-0.7-0.7-0.5-1.2c0.2-0.5,0.7-0.7,1.2-0.5c1.8,0.7,3.6,1,5.5,1
		s3.8-0.3,5.5-1c0.5-0.2,1,0.1,1.2,0.5c0.2,0.5-0.1,1-0.5,1.2C28.2,43.6,26.1,44,24,44z"/>
	<path class="st1" d="M40.2,29.3C40.2,29.3,40.1,29.3,40.2,29.3c-0.6-0.1-1-0.5-0.9-1c0-0.5,0.1-1,0.1-1.5c0-4.9-2.3-9.5-6.3-12.4
		c-0.4-0.3-0.5-0.9-0.2-1.3c0.3-0.4,0.9-0.5,1.3-0.2c4.4,3.2,7,8.4,7,13.9c0,0.6,0,1.1-0.1,1.7C41.1,28.9,40.7,29.3,40.2,29.3z"/>
	<path class="st1" d="M7.8,29.5c-0.5,0-0.9-0.4-0.9-0.8c-0.1-0.6-0.1-1.2-0.1-1.8c0-5.4,2.6-10.6,7-13.9c0.4-0.3,1-0.2,1.3,0.2
		c0.3,0.4,0.2,1-0.2,1.3c-3.9,2.9-6.3,7.5-6.3,12.4c0,0.5,0,1.1,0.1,1.6C8.8,28.9,8.4,29.4,7.8,29.5C7.9,29.5,7.9,29.5,7.8,29.5z"/>
</g>
</svg>
