<?xml version="1.0" encoding="utf-8"?>
<!-- Generator: Adobe Illustrator 24.3.0, SVG Export Plug-In . SVG Version: 6.00 Build 0)  -->
<svg version="1.0" id="Layer_1" xmlns="http://www.w3.org/2000/svg" xmlns:xlink="http://www.w3.org/1999/xlink" x="0px" y="0px"
	 viewBox="0 0 200 200" style="enable-background:new 0 0 200 200;" xml:space="preserve">
<style type="text/css">
	.st0{fill:#efdd0e;}
</style>
<g>
	<path class="st0" d="M100,1.07C44.99,1.07,0.4,45.36,0.4,100s44.59,98.93,99.6,98.93s99.6-44.29,99.6-98.93S155.01,1.07,100,1.07z
		 M172.36,147.82l-0.9-6.4l-36.76,9.29l-17.81,29.98l5.58,2.83v4.56H77.01v-4.56l5.81-2.83L62.63,148.6l-34.02-7.67l-0.97,6.18
		l-4.33,1.41L9.26,105.28l4.33-1.41l4.49,4.65L42.36,79.4l-3.22-34.72l-6.18,0.99l-2.68-3.69l36.78-26.72l2.68,3.69l-3.04,5.71
		l35.2,14.09l32.03-13.79l-2.85-5.57l2.68-3.69l36.78,26.72l-2.68,3.69l-6.37-1.13l-2.53,37.83l23.01,26.2l4.42-4.43l4.33,1.41
		l-14.05,43.23L172.36,147.82z"/>
	<g>
		<path class="st0" d="M91.49,94.51v34.29H77.21V71.19h14.28l17.02,34.29V71.19h14.28v57.61h-14.28L91.49,94.51z"/>
	</g>
</g>
</svg>
