<?xml version="1.0" encoding="utf-8"?>
<!-- Generator: Adobe Illustrator 24.3.0, SVG Export Plug-In . SVG Version: 6.00 Build 0)  -->
<svg version="1.0" id="Layer_1" xmlns="http://www.w3.org/2000/svg" xmlns:xlink="http://www.w3.org/1999/xlink" x="0px" y="0px"
	 viewBox="0 0 300 36.86" style="enable-background:new 0 0 300 36.86;" xml:space="preserve">
<style type="text/css">
	.st0{fill:#efdd0e;}
</style>
<g>
	<path class="st0" d="M9.04,14.66v21.56H0V0h9.04l10.77,21.56V0h9.04v36.23h-9.04L9.04,14.66z"/>
	<path class="st0" d="M33.53,10.35h8.56v16.3c0,2.86,1.15,4.13,3.37,4.13c2.79,0,4.52-2.09,4.52-5.72V10.35h8.56v25.88h-8.56V32.1
		c-1.01,2.86-3.7,4.77-7.6,4.77c-5.63,0-8.85-3.31-8.85-9.99V10.35z"/>
	<path class="st0" d="M71.52,23.83v12.39h-8.56V10.35h8.56v5.04c0.77-3.81,2.98-5.67,6.97-5.67c0.82,0,1.54,0.05,1.97,0.23
		l-0.1,6.54c-0.48-0.05-1.15-0.05-2.02-0.05C74.07,16.43,71.52,18.98,71.52,23.83z"/>
	<path class="st0" d="M83.45,0h8.51v6.63h-8.51V0z M83.45,10.35h8.51v25.88h-8.51V10.35z"/>
	<path class="st0" d="M111.26,0h24.1v6.99H120.4v7.67h13.28v6.99H120.4v14.57h-9.14C111.26,36.22,111.26,0,111.26,0z"/>
	<path class="st0" d="M151.23,9.72c9.04,0,13.08,5.36,13.08,13.57s-4.04,13.57-13.08,13.57c-9.09,0-13.18-5.36-13.18-13.57
		S142.14,9.72,151.23,9.72z M151.23,30.78c3.13,0,4.57-2,4.57-7.49s-1.44-7.49-4.57-7.49c-3.17,0-4.62,2-4.62,7.49
		S148.05,30.78,151.23,30.78z"/>
	<path class="st0" d="M180.57,9.72c9.04,0,13.08,5.36,13.08,13.57s-4.04,13.57-13.08,13.57c-9.09,0-13.18-5.36-13.18-13.57
		S171.48,9.72,180.57,9.72z M180.57,30.78c3.13,0,4.57-2,4.57-7.49s-1.44-7.49-4.57-7.49c-3.17,0-4.62,2-4.62,7.49
		S177.39,30.78,180.57,30.78z"/>
	<path class="st0" d="M208.18,26.92c0,2.95,1.01,3.63,4.33,3.63h2.79v5.9c-1.15,0.09-3.7,0.14-5.19,0.14
		c-7.7,0-10.49-2.32-10.49-8.58V16.39h-4.04v-6.04h4.04V3h8.56v7.35h7.12v6.04h-7.12L208.18,26.92L208.18,26.92z"/>
	<path class="st0" d="M227.32,36.23h-8.56V0h8.56v14.3c0.91-2.72,3.66-4.59,7.46-4.59c6.45,0,10.2,4.54,10.2,13.57
		s-3.75,13.57-10.2,13.57c-3.8,0-6.54-1.86-7.46-4.59V36.23z M231.89,30.78c3.13,0,4.57-2,4.57-7.49s-1.44-7.49-4.57-7.49
		c-3.17,0-4.57,2-4.57,7.49S228.72,30.78,231.89,30.78z"/>
	<path class="st0" d="M257.19,36.86c-5.48,0-9.24-3.13-9.24-8.17c0-5.08,3.66-8.22,9.24-8.22c3.51,0,6.4,1.32,7.46,3.63v-5.08
		c0-2-1.15-3.45-3.42-3.45c-2.16,0-3.27,1.13-3.46,2.91h-8.51c0.24-5.13,4.18-8.76,11.98-8.76c7.84,0,11.98,3.9,11.98,9.31v13.3
		c0,1.45,0.29,3.04,0.77,3.9h-8.71c-0.34-0.68-0.58-1.82-0.63-3.04C263.68,35.27,261.04,36.86,257.19,36.86z M264.65,28.69
		c0-1.95-1.3-3.04-4.04-3.04s-4.09,1.09-4.09,3.04s1.39,3,4.09,3C263.25,31.69,264.65,30.64,264.65,28.69z"/>
	<path class="st0" d="M278.11,36.23V0h8.51v36.23H278.11z"/>
	<path class="st0" d="M291.49,36.23V0H300v36.23H291.49z"/>
</g>
</svg>
