<svg xmlns="http://www.w3.org/2000/svg" width="107.6" height="108" viewBox="0 0 107.6 108">
  <g id="menu_commu_active" transform="translate(-10.5 -10)">
    <g id="그룹_14" data-name="그룹 14">
      <path id="패스_43" data-name="패스 43" d="M36.9,89.2a5.019,5.019,0,0,1-1.2-.2C20.9,84.2,10.5,68.3,10.5,50.2A40.138,40.138,0,0,1,50.7,10H77.8a40.373,40.373,0,0,1,40.3,40.3,39.924,39.924,0,0,1-7.3,23.2,4.022,4.022,0,1,1-6.6-4.6A32.292,32.292,0,0,0,77.8,18H50.7A32.35,32.35,0,0,0,18.4,50.3C18.4,65,26.5,77.8,38,81.5a3.969,3.969,0,0,1,2.6,5A3.751,3.751,0,0,1,36.9,89.2Z" fill="#efdd0e"/>
      <path id="패스_44" data-name="패스 44" d="M36.9,106.5a3.764,3.764,0,0,1-3.3-1.8,4,4,0,0,1,1.1-5.5l14.9-9.9A3.966,3.966,0,0,1,54,95.9l-14.9,9.9A3.81,3.81,0,0,1,36.9,106.5Z" fill="#efdd0e"/>
    </g>
    <circle id="타원_42" data-name="타원 42" cx="4.1" cy="4.1" r="4.1" transform="translate(60.1 46.9)" fill="#efdd0e"/>
    <circle id="타원_43" data-name="타원 43" cx="4.1" cy="4.1" r="4.1" transform="translate(76.2 46.9)" fill="#efdd0e"/>
    <circle id="타원_44" data-name="타원 44" cx="4.1" cy="4.1" r="4.1" transform="translate(44.4 46.9)" fill="#efdd0e"/>
    <g id="그룹_16" data-name="그룹 16">
      <path id="패스_45" data-name="패스 45" d="M78,109.4H73.2c-14.9,0-27.1-11-27.1-24.4,0-13.5,12.2-24.4,27.1-24.4H90.5a28.684,28.684,0,0,1,19.8,7.7,4.031,4.031,0,1,1-5.6,5.8,20.476,20.476,0,0,0-14.2-5.5H73.2C62.7,68.6,54.1,76,54.1,85c0,9.1,8.6,16.4,19.1,16.4H78a4,4,0,0,1,0,8Z" fill="#efdd0e"/>
      <path id="패스_46" data-name="패스 46" d="M90.5,118a4.012,4.012,0,0,1-4-4l-.1-8.6a4,4,0,0,1,1.2-2.9,3.949,3.949,0,0,1,2.8-1.2c10.5,0,19.1-7.4,19.1-16.4a15.3,15.3,0,0,0-4.9-11,4.031,4.031,0,0,1,5.6-5.8,23.133,23.133,0,0,1,7.3,16.7c0,12.2-10,22.4-23.1,24.2v4.8a3.913,3.913,0,0,1-3.9,4.2Z" fill="#efdd0e"/>
      <g id="그룹_15" data-name="그룹 15">
        <line id="선_4" data-name="선 4" x1="12.5" y1="8.6" transform="translate(78 105.4)" fill="#35b975"/>
        <path id="패스_47" data-name="패스 47" d="M90.5,118a3.891,3.891,0,0,1-2.3-.7l-12.5-8.6a4.022,4.022,0,0,1,4.6-6.6l12.5,8.6a4.008,4.008,0,0,1,1,5.6A3.9,3.9,0,0,1,90.5,118Z" fill="#efdd0e"/>
      </g>
    </g>
    <path id="패스_48" data-name="패스 48" d="M36.9,106.5a4.012,4.012,0,0,1-4-4V85.2a4,4,0,0,1,8,0v17.3A4.012,4.012,0,0,1,36.9,106.5Z" fill="#efdd0e"/>
  </g>
</svg>
