<?xml version="1.0" encoding="utf-8"?>
<!-- Generator: Adobe Illustrator 25.0.1, SVG Export Plug-In . SVG Version: 6.00 Build 0)  -->
<svg version="1.1" id="Layer_1" xmlns="http://www.w3.org/2000/svg" xmlns:xlink="http://www.w3.org/1999/xlink" x="0px" y="0px"
	 viewBox="0 0 128 128" style="enable-background:new 0 0 128 128;" xml:space="preserve">
<style type="text/css">
	.st0{fill:#FFFFFF;}
	.st1{fill:#FFFFFF;stroke:#222222;stroke-width:8;stroke-linecap:round;stroke-linejoin:round;stroke-miterlimit:10;}
	.st2{fill:none;stroke:#222222;stroke-width:8;stroke-miterlimit:10;}
	.st3{fill:none;stroke:#222222;stroke-width:8;stroke-linecap:round;stroke-linejoin:round;stroke-miterlimit:10;}
	.st4{fill:none;stroke:#222222;stroke-width:8;stroke-linecap:round;stroke-miterlimit:10;}
	.st5{fill:#222222;}
	.st6{fill:#35B975;}
	.st7{fill:#35B975;stroke:#222222;stroke-width:8;stroke-linecap:round;stroke-linejoin:round;stroke-miterlimit:10;}
</style>
<g>
	<g>
		<path class="st0" d="M45.6,69.6c-1,0-2.1-0.4-2.8-1.2l-13-13L16.4,68.5c-1.6,1.5-4.1,1.5-5.7-0.1c-1.5-1.6-1.5-4.1,0.1-5.7
			L27,46.9c1.6-1.5,4.1-1.5,5.6,0l15.8,15.9c1.6,1.6,1.5,4.1,0,5.7C47.6,69.2,46.6,69.6,45.6,69.6z"/>
		<path class="st0" d="M95.6,107h-50c-10.9,0-19.8-8.9-19.8-19.8V49.7c0-2.2,1.8-4,4-4s4,1.8,4,4v37.4c0,6.5,5.3,11.8,11.8,11.8h50
			c2.2,0,4,1.8,4,4S97.8,107,95.6,107z"/>
	</g>
	<g>
		<path class="st0" d="M98.2,83.3c-1,0-2.1-0.4-2.8-1.2L79.6,66.2c-1.6-1.6-1.5-4.1,0-5.7c1.6-1.6,4.1-1.5,5.7,0l13,13l13.4-13.1
			c1.6-1.5,4.1-1.5,5.7,0.1c1.5,1.6,1.5,4.1-0.1,5.7L101,82.1C100.2,82.9,99.2,83.3,98.2,83.3z"/>
		<path class="st0" d="M98.2,83.3c-2.2,0-4-1.8-4-4V40.8c0-6.5-5.3-11.8-11.8-11.8h-52c-2.2,0-4-1.8-4-4s1.8-4,4-4h52
			c10.9,0,19.8,8.9,19.8,19.8v38.4C102.2,81.5,100.4,83.3,98.2,83.3z"/>
	</g>
</g>
</svg>
