<?xml version="1.0" encoding="utf-8"?>
<!-- Generator: Adobe Illustrator 25.0.1, SVG Export Plug-In . SVG Version: 6.00 Build 0)  -->
<svg version="1.1" id="Layer_1" xmlns="http://www.w3.org/2000/svg" xmlns:xlink="http://www.w3.org/1999/xlink" x="0px" y="0px"
	 viewBox="0 0 128 128" style="enable-background:new 0 0 128 128;" xml:space="preserve">
<style type="text/css">
	.st0{fill:#FFFFFF;}
	.st1{fill:#FFFFFF;stroke:#222222;stroke-width:8;stroke-linecap:round;stroke-linejoin:round;stroke-miterlimit:10;}
	.st2{fill:none;stroke:#222222;stroke-width:8;stroke-miterlimit:10;}
	.st3{fill:none;stroke:#222222;stroke-width:8;stroke-linecap:round;stroke-linejoin:round;stroke-miterlimit:10;}
	.st4{fill:none;stroke:#222222;stroke-width:8;stroke-linecap:round;stroke-miterlimit:10;}
	.st5{fill:#222222;}
	.st6{fill:#35B975;}
	.st7{fill:#35B975;stroke:#222222;stroke-width:8;stroke-linecap:round;stroke-linejoin:round;stroke-miterlimit:10;}
</style>
<g>
	<path class="st0" d="M64,116.7c-0.8,0-1.7-0.3-2.3-0.8c-12.4-9-25.8-10.6-36.6-11.8c-1.9-0.2-3.6-0.4-5.3-0.6
		c-7.7-1-10.1-8.2-9.7-12.8V24.5c0-0.4,0.1-0.7,0.2-1.1c0.2-0.7,2.2-6.9,9.4-10.2c7.5-3.4,17.6-2.2,29.9,3.6
		C50.9,17.3,68,25.2,68,40.6v72.1c0,1.5-0.8,2.9-2.2,3.6C65.2,116.6,64.6,116.7,64,116.7z M18,25.2v65.7c0,0.1,0,0.2,0,0.3
		c-0.1,1.2,0.1,4,2.8,4.4c1.6,0.2,3.4,0.4,5.2,0.6c10,1.1,22,2.5,34,9.2V40.6C60,30.2,46.4,24.1,46.2,24c0,0-0.1,0-0.1,0
		c-9.9-4.6-17.9-5.9-23.1-3.6C19.8,21.8,18.4,24.2,18,25.2z"/>
	<path class="st0" d="M64,116.7c-0.6,0-1.2-0.1-1.8-0.4c-1.3-0.7-2.2-2.1-2.2-3.6V40.6c0-15.3,17.1-23.3,18.5-23.9
		c12.3-5.8,22.4-7,29.9-3.6c7.3,3.3,9.2,9.5,9.4,10.2c0.1,0.4,0.2,0.7,0.2,1.1v66.2c0.3,4.6-2,11.8-9.8,12.8
		c-1.7,0.2-3.5,0.4-5.3,0.6c-10.8,1.2-24.2,2.8-36.6,11.8C65.7,116.5,64.8,116.7,64,116.7z M99.1,19.3c-4.7,0-10.5,1.6-17.2,4.7
		c0,0-0.1,0-0.1,0C81.6,24.1,68,30.2,68,40.6v64.9c12.1-6.7,24.1-8.1,34-9.2c1.8-0.2,3.5-0.4,5.2-0.6c2.8-0.4,2.9-3.2,2.8-4.5
		c0-0.1,0-0.2,0-0.3V25.2c-0.4-1-1.8-3.4-5-4.8C103.3,19.6,101.3,19.3,99.1,19.3z"/>
</g>
</svg>
