<svg xmlns="http://www.w3.org/2000/svg" width="107.4" height="97.9" viewBox="0 0 107.4 97.9">
  <g id="menu_customer_active" transform="translate(-10.3 -15)">
    <path id="패스_53" data-name="패스 53" d="M33.1,112.9a4.529,4.529,0,0,1-1.6-.3c-20.7-9-21.2-39.3-21.2-40.6,0-33.5,22.1-56.9,53.7-56.9a4,4,0,0,1,0,8c-26.9,0-45.7,20.1-45.7,48.8,0,.2.5,26.4,16.4,33.3a4.04,4.04,0,0,1,2.1,5.3A4.143,4.143,0,0,1,33.1,112.9Z" fill="#efdd0e"/>
    <path id="패스_54" data-name="패스 54" d="M33.1,112.9a4,4,0,0,1-1.9-7.5c10.5-5.8,13.7-15,12.1-21.6-1.3-5.7-5.8-9.2-12.1-9.5-5.3-.2-9.1.6-15.5,2.1a3.946,3.946,0,0,1-4.8-3,3.992,3.992,0,0,1,3-4.8c6.2-1.5,11-2.6,17.7-2.3,9.9.5,17.3,6.5,19.5,15.7,2.2,9.5-1.9,22.5-16,30.4A3.943,3.943,0,0,1,33.1,112.9Z" fill="#efdd0e"/>
    <path id="패스_55" data-name="패스 55" d="M94.9,112.9a4.143,4.143,0,0,1-3.7-2.4,3.99,3.99,0,0,1,2.1-5.3c16-7,16.4-33.1,16.4-33.4C109.7,43.1,90.9,23,64,23a4,4,0,0,1,0-8c31.6,0,53.7,23.4,53.7,56.8,0,1.3-.6,31.7-21.2,40.7A3.166,3.166,0,0,1,94.9,112.9Z" fill="#efdd0e"/>
    <path id="패스_56" data-name="패스 56" d="M94.9,112.9a4.136,4.136,0,0,1-1.9-.5C78.8,104.5,74.8,91.5,77,82c2.2-9.2,9.6-15.2,19.5-15.7,6.6-.3,11.5.8,17.7,2.3a4,4,0,0,1-1.8,7.8c-6.4-1.5-10.2-2.3-15.5-2.1-6.2.3-10.7,3.8-12.1,9.5-1.5,6.5,1.6,15.8,12.1,21.6a4,4,0,0,1-2,7.5Z" fill="#efdd0e"/>
  </g>
</svg>
