<svg xmlns="http://www.w3.org/2000/svg" width="98.1" height="108" viewBox="0 0 98.1 108">
  <g id="menu_aca_active" transform="translate(-15 -10)">
    <g id="그룹_13" data-name="그룹 13">
      <path id="패스_38" data-name="패스 38" d="M98.7,118H29.3A14.3,14.3,0,0,1,15,103.7V24.2A14.276,14.276,0,0,1,29.3,10H98.8a14.3,14.3,0,0,1,14.3,14.3v79.5A14.428,14.428,0,0,1,98.7,118ZM29.3,18A6.274,6.274,0,0,0,23,24.3v79.5a6.274,6.274,0,0,0,6.3,6.3H98.8a6.274,6.274,0,0,0,6.3-6.3V24.2a6.274,6.274,0,0,0-6.3-6.3H29.3Z" fill="#efdd0e"/>
      <path id="패스_39" data-name="패스 39" d="M108.1,66.3H19a4,4,0,0,1,0-8h89.1a4,4,0,0,1,0,8Z" fill="#efdd0e"/>
    </g>
    <path id="패스_40" data-name="패스 40" d="M64,86.7A24.4,24.4,0,1,1,88.4,62.3,24.433,24.433,0,0,1,64,86.7Zm0-40.8A16.4,16.4,0,1,0,80.4,62.3,16.41,16.41,0,0,0,64,45.9Z" fill="#efdd0e"/>
  </g>
</svg>
