<svg xmlns="http://www.w3.org/2000/svg" width="109.06" height="106.4" viewBox="0 0 109.06 106.4">
  <g id="menu_match_active" transform="translate(-9.483 -10.8)">
    <path id="패스_42" data-name="패스 42" d="M64,102.3a45.75,45.75,0,1,1,45.8-45.7A45.857,45.857,0,0,1,64,102.3Zm0-83.5a37.75,37.75,0,1,0,37.8,37.7A37.834,37.834,0,0,0,64,18.8Z" fill="#efdd0e"/>
    <path id="패스_43" data-name="패스 43" d="M33.2,117.2h-.6a3.921,3.921,0,0,1-3.2-2.6l-3.9-11L13,102a4.177,4.177,0,0,1-3.2-2.4,4.127,4.127,0,0,1,.5-4L25.4,76.2a3.991,3.991,0,0,1,6.3,4.9L21,95l8,1a4.06,4.06,0,0,1,3.3,2.6l2.3,6.3,8.7-11.4a4,4,0,1,1,6.4,4.8L36.6,115.6A4.748,4.748,0,0,1,33.2,117.2Z" fill="#efdd0e"/>
    <path id="패스_44" data-name="패스 44" d="M94.8,117.2a4.175,4.175,0,0,1-3.2-1.6l-14-18.5A4,4,0,1,1,84,92.3l9.6,12.6,2.3-6.3A4.06,4.06,0,0,1,99.2,96l8-1L96.3,81.1a3.991,3.991,0,1,1,6.3-4.9l15.1,19.4a3.863,3.863,0,0,1,.5,4A3.973,3.973,0,0,1,115,102l-12.5,1.6-3.9,11a3.921,3.921,0,0,1-3.2,2.6Z" fill="#efdd0e"/>
    <path id="패스_45" data-name="패스 45" d="M74.1,79.6a7.311,7.311,0,0,1-4.4-1.5L64,74l-5.7,4.1a7.505,7.505,0,0,1-8.8,0,7.354,7.354,0,0,1-2.7-8.4L49,63l-5.7-4.1a7.532,7.532,0,0,1,4.4-13.6h7.1L57,38.6a7.412,7.412,0,0,1,7.1-5.2,7.29,7.29,0,0,1,7.1,5.2l2.2,6.7h7.1a7.29,7.29,0,0,1,7.1,5.2,7.448,7.448,0,0,1-2.7,8.4L79,63.1l2.2,6.7a7.448,7.448,0,0,1-2.7,8.4A7.91,7.91,0,0,1,74.1,79.6ZM64,65.9a7.91,7.91,0,0,1,4.4,1.4l4.7,3.4-1.8-5.5A7.55,7.55,0,0,1,74,56.8l4.7-3.4H72.9a7.412,7.412,0,0,1-7.1-5.2L64,42.7l-1.8,5.5a7.5,7.5,0,0,1-7.1,5.2H49.3L54,56.8a7.55,7.55,0,0,1,2.7,8.4l-1.8,5.5,4.7-3.4A7.2,7.2,0,0,1,64,65.9Zm9.4-20.2Zm-9.9-4.5Z" fill="#efdd0e"/>
  </g>
</svg>
