<svg xmlns="http://www.w3.org/2000/svg" width="108.925" height="86" viewBox="0 0 108.925 86">
  <g id="menu_bridge_active" transform="translate(-9.587 -21)">
    <g id="그룹_13" data-name="그룹 13">
      <path id="패스_38" data-name="패스 38" d="M45.6,69.6a3.784,3.784,0,0,1-2.8-1.2l-13-13L16.4,68.5a4.031,4.031,0,1,1-5.6-5.8L27,46.9a4.046,4.046,0,0,1,5.6,0L48.4,62.8a4.075,4.075,0,0,1,0,5.7A4.3,4.3,0,0,1,45.6,69.6Z" fill="#efdd0e"/>
      <path id="패스_39" data-name="패스 39" d="M95.6,107h-50A19.845,19.845,0,0,1,25.8,87.2V49.7a4,4,0,1,1,8,0V87.1A11.822,11.822,0,0,0,45.6,98.9h50a4.012,4.012,0,0,1,4,4A4.1,4.1,0,0,1,95.6,107Z" fill="#efdd0e"/>
    </g>
    <g id="그룹_14" data-name="그룹 14">
      <path id="패스_40" data-name="패스 40" d="M98.2,83.3a3.784,3.784,0,0,1-2.8-1.2L79.6,66.2a4.031,4.031,0,0,1,5.7-5.7l13,13,13.4-13.1a4.031,4.031,0,0,1,5.6,5.8L101,82.1A3.949,3.949,0,0,1,98.2,83.3Z" fill="#efdd0e"/>
      <path id="패스_41" data-name="패스 41" d="M98.2,83.3a4.012,4.012,0,0,1-4-4V40.8A11.822,11.822,0,0,0,82.4,29h-52a4,4,0,1,1,0-8h52a19.845,19.845,0,0,1,19.8,19.8V79.2A4.034,4.034,0,0,1,98.2,83.3Z" fill="#efdd0e"/>
    </g>
  </g>
</svg>
