<svg xmlns="http://www.w3.org/2000/svg" width="109.9" height="97.5" viewBox="0 0 109.9 97.5">
  <g id="menu_info_active" transform="translate(-9 -17)">
    <path id="패스_57" data-name="패스 57" d="M77.9,99.1H70.1v-8h7.8a33.1,33.1,0,0,0,0-66.2H50.1a33.1,33.1,0,0,0,0,66.2v8a41.05,41.05,0,1,1,0-82.1H77.8a41.05,41.05,0,1,1,.1,82.1Z" fill="#efdd0e"/>
    <path id="패스_58" data-name="패스 58" d="M69.6,114.5a4.069,4.069,0,0,1-2.4-.8L47.6,98.6a3.991,3.991,0,1,1,4.9-6.3l13.1,10.1V95.5a4,4,0,0,1,8,0v15.1a4.173,4.173,0,0,1-2.2,3.6A5.662,5.662,0,0,1,69.6,114.5Z" fill="#efdd0e"/>
    <path id="패스_59" data-name="패스 59" d="M74.4,62.1H53a4,4,0,0,1,0-8H74.4a4,4,0,0,1,0,8Z" fill="#efdd0e"/>
  </g>
</svg>
