<?xml version="1.0" encoding="utf-8"?>
<!-- Generator: Adobe Illustrator 25.0.1, SVG Export Plug-In . SVG Version: 6.00 Build 0)  -->
<svg version="1.1" id="Layer_1" xmlns="http://www.w3.org/2000/svg" xmlns:xlink="http://www.w3.org/1999/xlink" x="0px" y="0px"
	 viewBox="0 0 128 128" style="enable-background:new 0 0 128 128;" xml:space="preserve">
<style type="text/css">
	.st0{fill:#FFFFFF;}
	.st1{fill:#FFFFFF;stroke:#222222;stroke-width:8;stroke-linecap:round;stroke-linejoin:round;stroke-miterlimit:10;}
	.st2{fill:none;stroke:#222222;stroke-width:8;stroke-miterlimit:10;}
	.st3{fill:none;stroke:#222222;stroke-width:8;stroke-linecap:round;stroke-linejoin:round;stroke-miterlimit:10;}
	.st4{fill:none;stroke:#222222;stroke-width:8;stroke-linecap:round;stroke-miterlimit:10;}
	.st5{fill:#222222;}
	.st6{fill:#35B975;}
	.st7{fill:#35B975;stroke:#222222;stroke-width:8;stroke-linecap:round;stroke-linejoin:round;stroke-miterlimit:10;}
</style>
<g>
	<path class="st0" d="M64,102.3c-25.2,0-45.8-20.5-45.8-45.8S38.8,10.8,64,10.8s45.8,20.5,45.8,45.8S89.2,102.3,64,102.3z M64,18.8
		c-20.8,0-37.8,16.9-37.8,37.8S43.2,94.3,64,94.3s37.8-16.9,37.8-37.8S84.8,18.8,64,18.8z"/>
	<path class="st0" d="M33.2,117.2c-0.2,0-0.4,0-0.6,0c-1.5-0.2-2.7-1.2-3.2-2.6l-3.9-11L13,102c-1.4-0.2-2.6-1.1-3.2-2.4
		s-0.3-2.8,0.5-4l15.1-19.4c1.4-1.7,3.9-2.1,5.6-0.7c1.7,1.4,2.1,3.9,0.7,5.6L21,95l8,1c1.5,0.2,2.8,1.2,3.3,2.6l2.3,6.3l8.7-11.4
		c1.3-1.8,3.8-2.1,5.6-0.8c1.8,1.3,2.1,3.8,0.8,5.6l-13.1,17.3C35.6,116.6,34.5,117.2,33.2,117.2z"/>
	<path class="st0" d="M94.8,117.2c-1.2,0-2.4-0.6-3.2-1.6l-14-18.5c-1.3-1.8-1-4.3,0.8-5.6c1.8-1.3,4.3-1,5.6,0.8l9.6,12.6l2.3-6.3
		c0.5-1.4,1.8-2.4,3.3-2.6l8-1L96.3,81.1c-1.4-1.7-1-4.3,0.7-5.6c1.7-1.4,4.3-1,5.6,0.7l15.1,19.4c0.9,1.1,1.1,2.7,0.5,4
		s-1.8,2.3-3.2,2.4l-12.5,1.6l-3.9,11c-0.5,1.4-1.7,2.4-3.2,2.6C95.2,117.2,95,117.2,94.8,117.2z"/>
	<path class="st0" d="M74.1,79.6c-1.5,0-3.1-0.5-4.4-1.5L64,74l-5.7,4.1c-2.7,1.9-6.1,1.9-8.8,0c-2.7-1.9-3.7-5.2-2.7-8.4l2.2-6.7
		l-5.7-4.1c-2.7-1.9-3.7-5.2-2.7-8.4c1-3.1,3.8-5.2,7.1-5.2h7.1l2.2-6.7c1-3.1,3.8-5.2,7.1-5.2s6.1,2,7.1,5.2l2.2,6.7h7.1
		c3.3,0,6.1,2,7.1,5.2c1,3.1,0,6.4-2.7,8.4L79,63.1l2.2,6.7c1,3.1,0,6.4-2.7,8.4C77.2,79.1,75.6,79.6,74.1,79.6z M64,65.9
		c1.5,0,3.1,0.5,4.4,1.4l4.7,3.4l-1.8-5.5c-1-3.1,0.1-6.5,2.7-8.4l4.7-3.4h-5.8c-3.3,0-6.1-2.1-7.1-5.2L64,42.7l-1.8,5.5
		c-1,3.1-3.9,5.2-7.1,5.2h-5.8l4.7,3.4c2.6,1.9,3.7,5.3,2.7,8.4l-1.8,5.5l4.7-3.4C60.9,66.3,62.5,65.9,64,65.9z M73.4,45.7
		L73.4,45.7L73.4,45.7z M63.5,41.2C63.5,41.2,63.5,41.2,63.5,41.2L63.5,41.2z"/>
</g>
</svg>
