<?xml version="1.0" encoding="utf-8"?>
<!-- Generator: Adobe Illustrator 25.0.1, SVG Export Plug-In . SVG Version: 6.00 Build 0)  -->
<svg version="1.1" id="Layer_1" xmlns="http://www.w3.org/2000/svg" xmlns:xlink="http://www.w3.org/1999/xlink" x="0px" y="0px"
	 viewBox="0 0 128 128" style="enable-background:new 0 0 128 128;" xml:space="preserve">
<style type="text/css">
	.st0{fill:#FFFFFF;}
	.st1{fill:#FFFFFF;stroke:#222222;stroke-width:8;stroke-linecap:round;stroke-linejoin:round;stroke-miterlimit:10;}
	.st2{fill:none;stroke:#222222;stroke-width:8;stroke-miterlimit:10;}
	.st3{fill:none;stroke:#222222;stroke-width:8;stroke-linecap:round;stroke-linejoin:round;stroke-miterlimit:10;}
	.st4{fill:none;stroke:#222222;stroke-width:8;stroke-linecap:round;stroke-miterlimit:10;}
	.st5{fill:#222222;}
	.st6{fill:#35B975;}
	.st7{fill:#35B975;stroke:#222222;stroke-width:8;stroke-linecap:round;stroke-linejoin:round;stroke-miterlimit:10;}
</style>
<g>
	<path class="st0" d="M110.9,45.9c-2.2,0-4-1.8-4-4V23.7c0-2-1.6-3.7-3.7-3.7H84.4c-2.2,0-4-1.8-4-4s1.8-4,4-4h18.9
		c6.4,0,11.7,5.2,11.7,11.7v18.2C114.9,44.1,113.2,45.9,110.9,45.9z"/>
	<path class="st0" d="M17.1,45.9c-2.2,0-4-1.8-4-4V23.7c0-6.4,5.2-11.7,11.7-11.7h19.1c2.2,0,4,1.8,4,4s-1.8,4-4,4H24.7
		c-2,0-3.7,1.6-3.7,3.7v18.2C21.1,44.1,19.3,45.9,17.1,45.9z"/>
</g>
<g>
	<path class="st0" d="M43.6,115.8H24.7c-6.4,0-11.7-5.2-11.7-11.7V85.9c0-2.2,1.8-4,4-4s4,1.8,4,4v18.2c0,2,1.6,3.7,3.7,3.7h18.9
		c2.2,0,4,1.8,4,4S45.8,115.8,43.6,115.8z"/>
	<path class="st0" d="M103.3,115.8H84.2c-2.2,0-4-1.8-4-4s1.8-4,4-4h19.1c2,0,3.7-1.6,3.7-3.7V85.9c0-2.2,1.8-4,4-4s4,1.8,4,4v18.2
		C114.9,110.6,109.7,115.8,103.3,115.8z"/>
</g>
<g>
	<path class="st0" d="M91.9,95.8H37.7c-2.2,0-4-1.8-4-4s1.8-4,4-4h54.2c2.2,0,4,1.8,4,4S94.1,95.8,91.9,95.8z"/>
</g>
<g>
	<path class="st0" d="M54.8,39.7l16.1,24.5V39.7h7.8v37.1h-9.5L55,54.4v22.5h-7.8l-0.1-37.1H54.8z"/>
</g>
</svg>
