<?xml version="1.0" encoding="utf-8"?>
<!-- Generator: Adobe Illustrator 25.0.1, SVG Export Plug-In . SVG Version: 6.00 Build 0)  -->
<svg version="1.1" id="Layer_1" xmlns="http://www.w3.org/2000/svg" xmlns:xlink="http://www.w3.org/1999/xlink" x="0px" y="0px"
	 viewBox="0 0 128 128" style="enable-background:new 0 0 128 128;" xml:space="preserve">
<style type="text/css">
	.st0{fill:#FFFFFF;}
	.st1{fill:#FFFFFF;stroke:#222222;stroke-width:8;stroke-linecap:round;stroke-linejoin:round;stroke-miterlimit:10;}
	.st2{fill:none;stroke:#222222;stroke-width:8;stroke-miterlimit:10;}
	.st3{fill:none;stroke:#222222;stroke-width:8;stroke-linecap:round;stroke-linejoin:round;stroke-miterlimit:10;}
	.st4{fill:none;stroke:#222222;stroke-width:8;stroke-linecap:round;stroke-miterlimit:10;}
	.st5{fill:#222222;}
	.st6{fill:#35B975;}
	.st7{fill:#35B975;stroke:#222222;stroke-width:8;stroke-linecap:round;stroke-linejoin:round;stroke-miterlimit:10;}
	.st8{fill:#BBBBBB;}
	.st9{fill:none;stroke:#35B975;stroke-width:8;stroke-linecap:round;stroke-linejoin:round;stroke-miterlimit:10;}
	.st10{fill:none;stroke:#FFFFFF;stroke-width:8;stroke-linecap:round;stroke-linejoin:round;stroke-miterlimit:10;}
</style>
<g>
	<g>
		<line class="st10" x1="53.2" y1="30.1" x2="53.2" y2="49.6"/>
		<ellipse class="st10" cx="83.3" cy="28.6" rx="30.1" ry="12.5"/>
		<path class="st10" d="M73.2,58.8c3.2,0.4,6.6,0.6,10.1,0.6c16.6,0,30.1-4.4,30.1-9.8"/>
		<line class="st10" x1="53.2" y1="30.1" x2="53.2" y2="43.7"/>
		<line class="st10" x1="113.4" y1="30.1" x2="113.4" y2="59.4"/>
		<path class="st10" d="M113.4,69.1c0,5.4-13.5,9.8-30.1,9.8c-2.9,0-5.7-0.1-8.4-0.4"/>
		<path class="st10" d="M76,96.7c2.3,0.2,4.8,0.3,7.3,0.3c16.6,0,30.1-4.4,30.1-9.8"/>
		<line class="st10" x1="113.4" y1="57.6" x2="113.4" y2="88.1"/>
	</g>
	<g>
		<path class="st10" d="M74.8,64.5c0,6.9-13.5,12.5-30.1,12.5s-30.1-5.6-30.1-12.5c0-6.9,13.5-13.4,30.1-13.4S74.8,57.6,74.8,64.5z"
			/>
		<line class="st10" x1="14.6" y1="70.3" x2="14.6" y2="100.8"/>
		<path class="st10" d="M74.8,85.1c0,5.4-13.5,9.8-30.1,9.8s-30.1-4.4-30.1-9.8"/>
		<line class="st10" x1="14.6" y1="63.2" x2="14.6" y2="79.7"/>
		<path class="st10" d="M74.8,64.5v37.6c0,5.4-13.5,9.8-30.1,9.8s-30.1-4.4-30.1-9.8v-16"/>
	</g>
</g>
</svg>
