<?xml version="1.0" encoding="utf-8"?>
<!-- Generator: Adobe Illustrator 25.0.1, SVG Export Plug-In . SVG Version: 6.00 Build 0)  -->
<svg version="1.1" id="Layer_1" xmlns="http://www.w3.org/2000/svg" xmlns:xlink="http://www.w3.org/1999/xlink" x="0px" y="0px"
	 viewBox="0 0 128 128" style="enable-background:new 0 0 128 128;" xml:space="preserve">
<style type="text/css">
	.st0{fill:#FFFFFF;}
	.st1{fill:#FFFFFF;stroke:#222222;stroke-width:8;stroke-linecap:round;stroke-linejoin:round;stroke-miterlimit:10;}
	.st2{fill:none;stroke:#222222;stroke-width:8;stroke-miterlimit:10;}
	.st3{fill:none;stroke:#222222;stroke-width:8;stroke-linecap:round;stroke-linejoin:round;stroke-miterlimit:10;}
	.st4{fill:none;stroke:#222222;stroke-width:8;stroke-linecap:round;stroke-miterlimit:10;}
	.st5{fill:#222222;}
	.st6{fill:#35B975;}
	.st7{fill:#35B975;stroke:#222222;stroke-width:8;stroke-linecap:round;stroke-linejoin:round;stroke-miterlimit:10;}
</style>
<g>
	<path class="st0" d="M98.7,118H29.3c-7.9,0-14.3-6.4-14.3-14.3V24.2C15,16.4,21.4,10,29.3,10h69.5c7.9,0,14.3,6.4,14.3,14.3v79.5
		C113,111.6,106.6,118,98.7,118z M29.3,18c-3.5,0-6.3,2.8-6.3,6.3v79.5c0,3.5,2.8,6.3,6.3,6.3h69.5c3.5,0,6.3-2.8,6.3-6.3V24.2
		c0-3.5-2.8-6.3-6.3-6.3H29.3z"/>
	<path class="st0" d="M108.1,66.3H19c-2.2,0-4-1.8-4-4s1.8-4,4-4h89.1c2.2,0,4,1.8,4,4S110.3,66.3,108.1,66.3z"/>
</g>
<path class="st0" d="M64,86.7c-13.5,0-24.4-11-24.4-24.4c0-13.5,11-24.4,24.4-24.4s24.4,11,24.4,24.4C88.4,75.7,77.5,86.7,64,86.7z
	 M64,45.9c-9.1,0-16.4,7.4-16.4,16.4c0,9.1,7.4,16.4,16.4,16.4s16.4-7.4,16.4-16.4C80.4,53.2,73.1,45.9,64,45.9z"/>
</svg>
