<?xml version="1.0" encoding="utf-8"?>
<!-- Generator: Adobe Illustrator 25.0.1, SVG Export Plug-In . SVG Version: 6.00 Build 0)  -->
<svg version="1.1" id="Layer_1" xmlns="http://www.w3.org/2000/svg" xmlns:xlink="http://www.w3.org/1999/xlink" x="0px" y="0px"
	 viewBox="0 0 128 128" style="enable-background:new 0 0 128 128;" xml:space="preserve">
<style type="text/css">
	.st0{fill:#FFFFFF;}
	.st1{fill:#FFFFFF;stroke:#222222;stroke-width:8;stroke-linecap:round;stroke-linejoin:round;stroke-miterlimit:10;}
	.st2{fill:none;stroke:#222222;stroke-width:8;stroke-miterlimit:10;}
	.st3{fill:none;stroke:#222222;stroke-width:8;stroke-linecap:round;stroke-linejoin:round;stroke-miterlimit:10;}
	.st4{fill:none;stroke:#222222;stroke-width:8;stroke-linecap:round;stroke-miterlimit:10;}
	.st5{fill:#222222;}
	.st6{fill:#35B975;}
	.st7{fill:#35B975;stroke:#222222;stroke-width:8;stroke-linecap:round;stroke-linejoin:round;stroke-miterlimit:10;}
</style>
<g>
	<path class="st0" d="M33.1,112.9c-0.5,0-1.1-0.1-1.6-0.3c-20.7-9-21.2-39.3-21.2-40.6c0-33.5,22.1-56.9,53.7-56.9c2.2,0,4,1.8,4,4
		s-1.8,4-4,4c-26.9,0-45.7,20.1-45.7,48.8c0,0.2,0.5,26.4,16.4,33.3c2,0.9,3,3.2,2.1,5.3C36.1,112,34.6,112.9,33.1,112.9z"/>
	<path class="st0" d="M33.1,112.9c-1.4,0-2.8-0.7-3.5-2.1c-1.1-1.9-0.4-4.4,1.6-5.4c10.5-5.8,13.7-15,12.1-21.6
		c-1.3-5.7-5.8-9.2-12.1-9.5c-5.3-0.2-9.1,0.6-15.5,2.1c-2.2,0.5-4.3-0.8-4.8-3c-0.5-2.1,0.8-4.3,3-4.8c6.2-1.5,11-2.6,17.7-2.3
		c9.9,0.5,17.3,6.5,19.5,15.7c2.2,9.5-1.9,22.5-16,30.4C34.4,112.8,33.7,112.9,33.1,112.9z"/>
	<path class="st0" d="M94.9,112.9c-1.5,0-3-0.9-3.7-2.4c-0.9-2,0-4.4,2.1-5.3c16-7,16.4-33.1,16.4-33.4c0-28.7-18.8-48.8-45.7-48.8
		c-2.2,0-4-1.8-4-4s1.8-4,4-4c31.6,0,53.7,23.4,53.7,56.8c0,1.3-0.6,31.7-21.2,40.7C96,112.8,95.4,112.9,94.9,112.9z"/>
	<path class="st0" d="M94.9,112.9c-0.7,0-1.3-0.2-1.9-0.5c-14.2-7.9-18.2-20.9-16-30.4c2.2-9.2,9.6-15.2,19.5-15.7
		c6.6-0.3,11.5,0.8,17.7,2.3c2.1,0.5,3.5,2.7,3,4.8c-0.5,2.1-2.7,3.5-4.8,3c-6.4-1.5-10.2-2.3-15.5-2.1c-6.2,0.3-10.7,3.8-12.1,9.5
		c-1.5,6.5,1.6,15.8,12.1,21.6c1.9,1.1,2.6,3.5,1.6,5.4C97.7,112.2,96.3,112.9,94.9,112.9z"/>
</g>
</svg>
