<?xml version="1.0" encoding="utf-8"?>
<!-- Generator: Adobe Illustrator 25.0.1, SVG Export Plug-In . SVG Version: 6.00 Build 0)  -->
<svg version="1.1" id="Layer_1" xmlns="http://www.w3.org/2000/svg" xmlns:xlink="http://www.w3.org/1999/xlink" x="0px" y="0px"
	 viewBox="0 0 128 128" style="enable-background:new 0 0 128 128;" xml:space="preserve">
<style type="text/css">
	.st0{fill:#FFFFFF;}
	.st1{fill:#FFFFFF;stroke:#222222;stroke-width:8;stroke-linecap:round;stroke-linejoin:round;stroke-miterlimit:10;}
	.st2{fill:none;stroke:#222222;stroke-width:8;stroke-miterlimit:10;}
	.st3{fill:none;stroke:#222222;stroke-width:8;stroke-linecap:round;stroke-linejoin:round;stroke-miterlimit:10;}
	.st4{fill:none;stroke:#222222;stroke-width:8;stroke-linecap:round;stroke-miterlimit:10;}
	.st5{fill:#222222;}
	.st6{fill:#35B975;}
	.st7{fill:#35B975;stroke:#222222;stroke-width:8;stroke-linecap:round;stroke-linejoin:round;stroke-miterlimit:10;}
</style>
<g>
	<path class="st0" d="M101.7,114.7H26.3c-7.9,0-14.3-6.4-14.3-14.3V36.2C12,28.4,18.4,22,26.3,22h75.5c7.9,0,14.3,6.4,14.3,14.3
		v64.1C116,108.3,109.6,114.7,101.7,114.7z M26.3,30c-3.5,0-6.3,2.8-6.3,6.3v64.1c0,3.5,2.8,6.3,6.3,6.3h75.5c3.5,0,6.3-2.8,6.3-6.3
		V36.2c0-3.5-2.8-6.3-6.3-6.3H26.3z"/>
</g>
<path class="st0" d="M112,59.9H16c-2.2,0-4-1.8-4-4s1.8-4,4-4h96c2.2,0,4,1.8,4,4S114.2,59.9,112,59.9z"/>
<path class="st0" d="M41.8,39.6c-2.2,0-4-1.8-4-4V16.2c0-2.2,1.8-4,4-4s4,1.8,4,4v19.4C45.8,37.8,44,39.6,41.8,39.6z"/>
<path class="st0" d="M84,39.6c-2.2,0-4-1.8-4-4V16.2c0-2.2,1.8-4,4-4s4,1.8,4,4v19.4C88,37.8,86.2,39.6,84,39.6z"/>
<circle class="st0" cx="64" cy="72.3" r="4.4"/>
<circle class="st0" cx="87.1" cy="72.3" r="4.4"/>
<circle class="st0" cx="64" cy="91.5" r="4.4"/>
<circle class="st0" cx="39.4" cy="91.5" r="4.4"/>
</svg>
