<svg xmlns="http://www.w3.org/2000/svg" width="98.699" height="104" viewBox="0 0 98.699 104">
  <g id="menu_pred_active" transform="translate(-14.643 -12)">
    <path id="패스_66" data-name="패스 66" d="M55.9,88.2a4.012,4.012,0,0,1-4-4V82.9A19.121,19.121,0,0,0,44,68C33.1,59.7,32.8,51.9,32.8,51V16a4.012,4.012,0,0,1,4-4H64a4,4,0,0,1,0,8H40.8V50.9c0,.4.7,5.1,8.1,10.6a27.425,27.425,0,0,1,11,21.1v1.5A4.034,4.034,0,0,1,55.9,88.2Z" fill="#efdd0e"/>
    <path id="패스_67" data-name="패스 67" d="M36.8,52.8h-.4C18,50.8,14.1,38.6,14.7,32.2A15.109,15.109,0,0,1,29.8,17.3h7a4,4,0,0,1,0,8h-7a7.127,7.127,0,0,0-7.1,7.1v.4c-.1,1-.4,10.4,14.6,12.1a3.891,3.891,0,0,1,3.5,4.4A4,4,0,0,1,36.8,52.8Z" fill="#efdd0e"/>
    <path id="패스_68" data-name="패스 68" d="M64,91.5H33.5a4,4,0,0,1,0-8H64a4,4,0,0,1,0,8Z" fill="#efdd0e"/>
    <path id="패스_69" data-name="패스 69" d="M41.5,114.9a4.012,4.012,0,0,1-4-4V87.5a4,4,0,0,1,8,0v23.4A4.012,4.012,0,0,1,41.5,114.9Z" fill="#efdd0e"/>
    <path id="패스_70" data-name="패스 70" d="M94.5,116h-61a4,4,0,0,1,0-8h61a4,4,0,0,1,0,8Z" fill="#efdd0e"/>
    <path id="패스_71" data-name="패스 71" d="M72.1,88.2a4.012,4.012,0,0,1-4-4V82.7a27.116,27.116,0,0,1,11-21.1c7.3-5.6,8-10.2,8.1-10.6V20H64a4,4,0,0,1,0-8H91.2a4.012,4.012,0,0,1,4,4V51c0,.9-.3,8.6-11.2,16.9a19.418,19.418,0,0,0-7.9,14.9v1.3A4.034,4.034,0,0,1,72.1,88.2Z" fill="#efdd0e"/>
    <path id="패스_72" data-name="패스 72" d="M91.2,52.8a4.015,4.015,0,0,1-.5-8c15-1.6,14.7-11,14.6-12.1v-.4a7.127,7.127,0,0,0-7.1-7.1h-7a4,4,0,0,1,0-8h7a15.11,15.11,0,0,1,15.1,14.9c.5,6.4-3.3,18.6-21.7,20.6A.6.6,0,0,1,91.2,52.8Z" fill="#efdd0e"/>
    <path id="패스_73" data-name="패스 73" d="M94.5,91.5H64a4,4,0,0,1,0-8H94.5a4,4,0,0,1,0,8Z" fill="#efdd0e"/>
    <path id="패스_74" data-name="패스 74" d="M86.5,114.9a4.012,4.012,0,0,1-4-4V87.5a4,4,0,0,1,8,0v23.4A4.012,4.012,0,0,1,86.5,114.9Z" fill="#efdd0e"/>
    <path id="패스_75" data-name="패스 75" d="M72.1,103.2H55.9a4,4,0,1,1,0-8H72.1a4,4,0,1,1,0,8Z" fill="#efdd0e"/>
  </g>
</svg>
