<?xml version="1.0" encoding="utf-8"?>
<!-- Generator: Adobe Illustrator 25.0.1, SVG Export Plug-In . SVG Version: 6.00 Build 0)  -->
<svg version="1.1" id="Layer_1" xmlns="http://www.w3.org/2000/svg" xmlns:xlink="http://www.w3.org/1999/xlink" x="0px" y="0px"
	 viewBox="0 0 128 128" style="enable-background:new 0 0 128 128;" xml:space="preserve">
<style type="text/css">
	.st0{fill:#FFFFFF;}
	.st1{fill:#FFFFFF;stroke:#222222;stroke-width:8;stroke-linecap:round;stroke-linejoin:round;stroke-miterlimit:10;}
	.st2{fill:none;stroke:#222222;stroke-width:8;stroke-miterlimit:10;}
	.st3{fill:none;stroke:#222222;stroke-width:8;stroke-linecap:round;stroke-linejoin:round;stroke-miterlimit:10;}
	.st4{fill:none;stroke:#222222;stroke-width:8;stroke-linecap:round;stroke-miterlimit:10;}
	.st5{fill:#222222;}
	.st6{fill:#35B975;}
	.st7{fill:#35B975;stroke:#222222;stroke-width:8;stroke-linecap:round;stroke-linejoin:round;stroke-miterlimit:10;}
</style>
<path class="st0" d="M77.9,99.1h-7.8v-8h7.8c18.2,0,33.1-14.8,33.1-33.1c0-18.2-14.8-33.1-33.1-33.1H50.1
	c-18.2,0-33.1,14.8-33.1,33.1c0,18.2,14.8,33.1,33.1,33.1v8c-22.6,0-41.1-18.4-41.1-41.1S27.5,17,50.1,17h27.7
	c22.6,0,41.1,18.4,41.1,41.1S100.5,99.1,77.9,99.1z"/>
<path class="st0" d="M69.6,114.5c-0.9,0-1.7-0.3-2.4-0.8L47.6,98.6c-1.8-1.3-2.1-3.9-0.7-5.6c1.3-1.8,3.9-2.1,5.6-0.7l13.1,10.1
	v-6.9c0-2.2,1.8-4,4-4s4,1.8,4,4v15.1c0,1.5-0.9,2.9-2.2,3.6C70.8,114.4,70.2,114.5,69.6,114.5z"/>
<path class="st0" d="M74.4,62.1H53c-2.2,0-4-1.8-4-4s1.8-4,4-4h21.4c2.2,0,4,1.8,4,4S76.6,62.1,74.4,62.1z"/>
</svg>
