<svg xmlns="http://www.w3.org/2000/svg" width="107.968" height="105.485" viewBox="0 0 107.968 105.485">
  <g id="menu_coach_active" transform="translate(-10.058 -11.215)">
    <path id="패스_41" data-name="패스 41" d="M64,116.7a3.775,3.775,0,0,1-2.3-.8c-12.4-9-25.8-10.6-36.6-11.8-1.9-.2-3.6-.4-5.3-.6-7.7-1-10.1-8.2-9.7-12.8V24.5a4.253,4.253,0,0,1,.2-1.1,17.306,17.306,0,0,1,9.4-10.2c7.5-3.4,17.6-2.2,29.9,3.6,1.3.5,18.4,8.4,18.4,23.8v72.1a3.983,3.983,0,0,1-2.2,3.6A3.922,3.922,0,0,1,64,116.7ZM18,25.2v66c-.1,1.2.1,4,2.8,4.4,1.6.2,3.4.4,5.2.6,10,1.1,22,2.5,34,9.2V40.6C60,30.2,46.4,24.1,46.2,24h-.1c-9.9-4.6-17.9-5.9-23.1-3.6A9.451,9.451,0,0,0,18,25.2Z" fill="#efdd0e"/>
    <path id="패스_42" data-name="패스 42" d="M64,116.7a3.922,3.922,0,0,1-1.8-.4,4.173,4.173,0,0,1-2.2-3.6V40.6c0-15.3,17.1-23.3,18.5-23.9,12.3-5.8,22.4-7,29.9-3.6a16.928,16.928,0,0,1,9.4,10.2,4.253,4.253,0,0,1,.2,1.1V90.6c.3,4.6-2,11.8-9.8,12.8-1.7.2-3.5.4-5.3.6-10.8,1.2-24.2,2.8-36.6,11.8A2.94,2.94,0,0,1,64,116.7ZM99.1,19.3c-4.7,0-10.5,1.6-17.2,4.7h-.1c-.2.1-13.8,6.2-13.8,16.6v64.9c12.1-6.7,24.1-8.1,34-9.2,1.8-.2,3.5-.4,5.2-.6,2.8-.4,2.9-3.2,2.8-4.5v-66a9.451,9.451,0,0,0-5-4.8A13.813,13.813,0,0,0,99.1,19.3Z" fill="#efdd0e"/>
  </g>
</svg>
