<?xml version="1.0" encoding="utf-8"?>
<!-- Generator: Adobe Illustrator 25.0.1, SVG Export Plug-In . SVG Version: 6.00 Build 0)  -->
<svg version="1.1" id="Layer_1" xmlns="http://www.w3.org/2000/svg" xmlns:xlink="http://www.w3.org/1999/xlink" x="0px" y="0px"
	 viewBox="0 0 128 128" style="enable-background:new 0 0 128 128;" xml:space="preserve">
<style type="text/css">
	.st0{fill:#FFFFFF;}
	.st1{fill:#FFFFFF;stroke:#222222;stroke-width:8;stroke-linecap:round;stroke-linejoin:round;stroke-miterlimit:10;}
	.st2{fill:none;stroke:#222222;stroke-width:8;stroke-miterlimit:10;}
	.st3{fill:none;stroke:#222222;stroke-width:8;stroke-linecap:round;stroke-linejoin:round;stroke-miterlimit:10;}
	.st4{fill:none;stroke:#222222;stroke-width:8;stroke-linecap:round;stroke-miterlimit:10;}
	.st5{fill:#222222;}
	.st6{fill:#35B975;}
	.st7{fill:#35B975;stroke:#222222;stroke-width:8;stroke-linecap:round;stroke-linejoin:round;stroke-miterlimit:10;}
</style>
<g>
	<path class="st0" d="M36.9,89.2c-0.4,0-0.8-0.1-1.2-0.2c-14.8-4.8-25.2-20.7-25.2-38.8C10.4,28,28.5,10,50.7,10h27.1
		c22.2,0,40.3,18.1,40.3,40.3c0,8.4-2.5,16.4-7.3,23.2c-1.3,1.8-3.8,2.2-5.6,1c-1.8-1.3-2.2-3.8-1-5.6c3.8-5.4,5.9-11.9,5.9-18.6
		c0-17.8-14.5-32.3-32.3-32.3H50.7c-17.8,0-32.3,14.5-32.3,32.3c0,14.7,8.1,27.5,19.6,31.2c2.1,0.7,3.3,2.9,2.6,5
		C40.1,88.2,38.6,89.2,36.9,89.2z"/>
	<path class="st0" d="M36.9,106.5c-1.3,0-2.6-0.6-3.3-1.8c-1.2-1.8-0.7-4.3,1.1-5.5l14.9-9.9c1.8-1.2,4.3-0.7,5.5,1.1
		c1.2,1.8,0.7,4.3-1.1,5.5l-14.9,9.9C38.4,106.3,37.6,106.5,36.9,106.5z"/>
</g>
<circle class="st0" cx="64.2" cy="51" r="4.1"/>
<circle class="st0" cx="80.3" cy="51" r="4.1"/>
<circle class="st0" cx="48.5" cy="51" r="4.1"/>
<g>
	<path class="st0" d="M78,109.4h-4.8c-14.9,0-27.1-11-27.1-24.4c0-13.5,12.2-24.4,27.1-24.4h17.3c7.5,0,14.7,2.8,19.8,7.7
		c1.6,1.5,1.6,4.1,0.1,5.7c-1.5,1.6-4.1,1.6-5.7,0.1c-3.6-3.5-8.8-5.5-14.2-5.5H73.2c-10.5,0-19.1,7.4-19.1,16.4
		c0,9.1,8.6,16.4,19.1,16.4H78c2.2,0,4,1.8,4,4S80.2,109.4,78,109.4z"/>
	<path class="st0" d="M90.5,118c-2.2,0-4-1.8-4-4l-0.1-8.6c0-1.1,0.4-2.1,1.2-2.9c0.8-0.8,1.8-1.2,2.8-1.2
		c10.5,0,19.1-7.4,19.1-16.4c0-4-1.7-7.9-4.9-11c-1.6-1.5-1.6-4.1-0.1-5.7c1.5-1.6,4.1-1.6,5.7-0.1c4.7,4.5,7.3,10.5,7.3,16.7
		c0,12.2-10,22.4-23.1,24.2l0,4.8C94.6,116.1,92.8,117.9,90.5,118C90.6,118,90.5,118,90.5,118z"/>
	<g>
		<line class="st0" x1="90.5" y1="114" x2="78" y2="105.4"/>
		<path class="st0" d="M90.5,118c-0.8,0-1.6-0.2-2.3-0.7l-12.5-8.6c-1.8-1.3-2.3-3.7-1-5.6c1.3-1.8,3.7-2.3,5.6-1l12.5,8.6
			c1.8,1.3,2.3,3.7,1,5.6C93.1,117.4,91.8,118,90.5,118z"/>
	</g>
</g>
<path class="st0" d="M36.9,106.5c-2.2,0-4-1.8-4-4V85.2c0-2.2,1.8-4,4-4s4,1.8,4,4v17.3C40.9,104.7,39.1,106.5,36.9,106.5z"/>
</svg>
