<?xml version="1.0" encoding="utf-8"?>
<!-- Generator: Adobe Illustrator 25.0.1, SVG Export Plug-In . SVG Version: 6.00 Build 0)  -->
<svg version="1.1" id="Layer_1" xmlns="http://www.w3.org/2000/svg" xmlns:xlink="http://www.w3.org/1999/xlink" x="0px" y="0px"
	 viewBox="0 0 128 128" style="enable-background:new 0 0 128 128;" xml:space="preserve">
<style type="text/css">
	.st0{fill:#FFFFFF;}
	.st1{fill:#FFFFFF;stroke:#222222;stroke-width:8;stroke-linecap:round;stroke-linejoin:round;stroke-miterlimit:10;}
	.st2{fill:none;stroke:#222222;stroke-width:8;stroke-miterlimit:10;}
	.st3{fill:none;stroke:#222222;stroke-width:8;stroke-linecap:round;stroke-linejoin:round;stroke-miterlimit:10;}
	.st4{fill:none;stroke:#222222;stroke-width:8;stroke-linecap:round;stroke-miterlimit:10;}
	.st5{fill:#222222;}
	.st6{fill:#35B975;}
	.st7{fill:#35B975;stroke:#222222;stroke-width:8;stroke-linecap:round;stroke-linejoin:round;stroke-miterlimit:10;}
</style>
<g>
	<path class="st0" d="M55.9,88.2c-2.2,0-4-1.8-4-4c0-0.5,0-0.9,0-1.3c-0.1-5.8-3-11.2-7.9-14.9C33.1,59.7,32.8,51.9,32.8,51V16
		c0-2.2,1.8-4,4-4H64c2.2,0,4,1.8,4,4s-1.8,4-4,4H40.8v30.9c0,0.4,0.7,5.1,8.1,10.6c6.8,5.2,10.8,12.9,11,21.1c0,0.5,0,1,0,1.5
		C59.9,86.4,58.1,88.2,55.9,88.2z"/>
	<path class="st0" d="M36.8,52.8c-0.1,0-0.3,0-0.4,0c-18.4-2-22.3-14.2-21.7-20.6c0.1-8.3,6.9-14.9,15.1-14.9h7c2.2,0,4,1.8,4,4
		s-1.8,4-4,4h-7c-3.9,0-7.1,3.2-7.1,7.1c0,0.1,0,0.3,0,0.4c-0.1,1-0.4,10.4,14.6,12.1c2.2,0.2,3.8,2.2,3.5,4.4
		C40.6,51.3,38.8,52.8,36.8,52.8z"/>
	<path class="st0" d="M64,91.5H33.5c-2.2,0-4-1.8-4-4s1.8-4,4-4H64c2.2,0,4,1.8,4,4S66.2,91.5,64,91.5z"/>
	<path class="st0" d="M41.5,114.9c-2.2,0-4-1.8-4-4V87.5c0-2.2,1.8-4,4-4s4,1.8,4,4v23.4C45.5,113.1,43.7,114.9,41.5,114.9z"/>
	<path class="st0" d="M94.5,116h-61c-2.2,0-4-1.8-4-4s1.8-4,4-4h61c2.2,0,4,1.8,4,4S96.7,116,94.5,116z"/>
	<path class="st0" d="M72.1,88.2c-2.2,0-4-1.8-4-4c0-0.5,0-1,0-1.5c0.2-8.3,4.2-16,11-21.1c7.3-5.6,8-10.2,8.1-10.6V20H64
		c-2.2,0-4-1.8-4-4s1.8-4,4-4h27.2c2.2,0,4,1.8,4,4v35c0,0.9-0.3,8.6-11.2,16.9c-4.9,3.7-7.7,9.1-7.9,14.9c0,0.4,0,0.9,0,1.3
		C76.1,86.4,74.3,88.2,72.1,88.2z"/>
	<path class="st0" d="M91.2,52.8c-2,0-3.8-1.5-4-3.6C87,47,88.6,45,90.7,44.8c15-1.6,14.7-11,14.6-12.1c0-0.1,0-0.2,0-0.4
		c0-3.9-3.2-7.1-7.1-7.1h-7c-2.2,0-4-1.8-4-4s1.8-4,4-4h7c8.3,0,15,6.7,15.1,14.9c0.5,6.4-3.3,18.6-21.7,20.6
		C91.5,52.8,91.3,52.8,91.2,52.8z"/>
	<path class="st0" d="M94.5,91.5H64c-2.2,0-4-1.8-4-4s1.8-4,4-4h30.5c2.2,0,4,1.8,4,4S96.7,91.5,94.5,91.5z"/>
	<path class="st0" d="M86.5,114.9c-2.2,0-4-1.8-4-4V87.5c0-2.2,1.8-4,4-4s4,1.8,4,4v23.4C90.5,113.1,88.7,114.9,86.5,114.9z"/>
	<path class="st0" d="M72.1,103.2H55.9c-2.2,0-4-1.8-4-4s1.8-4,4-4h16.2c2.2,0,4,1.8,4,4S74.3,103.2,72.1,103.2z"/>
</g>
</svg>
