<?xml version="1.0" encoding="utf-8"?>
<!-- Generator: Adobe Illustrator 25.0.1, SVG Export Plug-In . SVG Version: 6.00 Build 0)  -->
<svg version="1.1" id="Layer_1" xmlns="http://www.w3.org/2000/svg" xmlns:xlink="http://www.w3.org/1999/xlink" x="0px" y="0px"
	 viewBox="0 0 128 128" style="enable-background:new 0 0 128 128;" xml:space="preserve">
<style type="text/css">
	.st0{fill:none;stroke:#39CD3E;stroke-width:10;stroke-linecap:round;stroke-linejoin:round;stroke-miterlimit:10;}
</style>
<g>
	<path class="st0" d="M64,13.3H30.4v31.4c0,18.6,15,33.6,33.6,33.6h0"/>
	<path class="st0" d="M30.4,25h-20v11.6c0,13.2,10.7,23.9,23.9,23.9h0"/>
	<line class="st0" x1="64" y1="78.3" x2="64" y2="92.8"/>
	<path class="st0" d="M64,94.6h-8.5c-8.6,0-15.5,6.9-15.5,15.5v0c0,2.5,2,4.6,4.6,4.6H64"/>
	<path class="st0" d="M64,13.3h33.6v31.4c0,18.6-15,33.6-33.6,33.6h0"/>
	<path class="st0" d="M97.6,25h20v11.6c0,13.2-10.7,23.9-23.9,23.9h0"/>
	<path class="st0" d="M64,94.6h8.5c8.6,0,15.5,6.9,15.5,15.5v0c0,2.5-2,4.6-4.6,4.6H64"/>
</g>
</svg>
