<?xml version="1.0" encoding="utf-8"?>
<!-- Generator: Adobe Illustrator 25.0.1, SVG Export Plug-In . SVG Version: 6.00 Build 0)  -->
<svg version="1.1" id="Layer_1" xmlns="http://www.w3.org/2000/svg" xmlns:xlink="http://www.w3.org/1999/xlink" x="0px" y="0px"
	 viewBox="0 0 128 128" style="enable-background:new 0 0 128 128;" xml:space="preserve">
<style type="text/css">
	.st0{fill:none;}
	.st1{fill:#FFFFFF;}
	.st2{fill:#B4B4B4;}
	.st3{fill:none;stroke:#FFFFFF;stroke-width:3;stroke-miterlimit:10;}
	.st4{fill:none;stroke:#FFFFFF;stroke-width:3;stroke-linecap:round;stroke-linejoin:round;stroke-miterlimit:10;}
</style>
<g>
	<g>
		<path class="st1" d="M98,116.6H24.4c-8.9,0-16.1-6.9-16.1-15.4V31.6c0-8.5,7.2-15.4,16.1-15.4h34.4c2.1,0,3.8,1.7,3.8,3.8
			s-1.7,3.8-3.8,3.8H24.4c-4.6,0-8.4,3.5-8.4,7.7v69.6c0,4.3,3.8,7.7,8.4,7.7H98c4.6,0,8.4-3.5,8.4-7.7V55.7c0-2.1,1.7-3.8,3.8-3.8
			s3.8,1.7,3.8,3.8v45.5C114.1,109.7,106.9,116.6,98,116.6z"/>
		<path class="st1" d="M47.1,86.1c-2,0-3.7-1.6-3.8-3.7c0-1.2-1-29.2,18.4-46.1c11.2-9.7,26.7-13.6,46-11.6l-5.1-7.3
			c-1.2-1.7-0.8-4.1,1-5.3c1.7-1.2,4.1-0.8,5.3,1L119,27.6c0.9,1.3,0.9,3,0.1,4.3c-0.8,1.3-2.4,2-3.9,1.7c-21.1-3.9-37.4-1-48.4,8.5
			c-16.6,14.4-15.8,39.8-15.8,40c0.1,2.1-1.6,3.9-3.7,4C47.2,86.1,47.2,86.1,47.1,86.1z"/>
		<path class="st1" d="M104.4,45.4c-1,0-1.9-0.4-2.7-1.1c-1.5-1.5-1.5-3.9,0-5.4l11.5-11.7c1.5-1.5,3.9-1.5,5.4-0.1
			c1.5,1.5,1.5,3.9,0.1,5.4l-11.5,11.7C106.3,45,105.4,45.4,104.4,45.4z"/>
	</g>
	<rect class="st0" width="128" height="128"/>
</g>
</svg>
