<?xml version="1.0" encoding="utf-8"?>
<!-- Generator: Adobe Illustrator 25.0.1, SVG Export Plug-In . SVG Version: 6.00 Build 0)  -->
<svg version="1.1" id="Layer_1" xmlns="http://www.w3.org/2000/svg" xmlns:xlink="http://www.w3.org/1999/xlink" x="0px" y="0px"
	 viewBox="0 0 128 128" style="enable-background:new 0 0 128 128;" xml:space="preserve">
<style type="text/css">
	.st0{fill:none;}
	.st1{fill:#FFFFFF;}
	.st2{fill:#B4B4B4;}
	.st3{fill:none;stroke:#FFFFFF;stroke-width:3;stroke-miterlimit:10;}
	.st4{fill:none;stroke:#FFFFFF;stroke-width:3;stroke-linecap:round;stroke-linejoin:round;stroke-miterlimit:10;}
</style>
<g>
	<g>
		<path class="st1" d="M49.1,119H26.6C16.9,119,9,111.1,9,101.4V84.1c0-2.1,1.7-3.8,3.8-3.8s3.8,1.7,3.8,3.8v17.3
			c0,5.5,4.4,9.9,9.9,9.9h22.5c2.1,0,3.8,1.7,3.8,3.8C53,117.3,51.3,119,49.1,119z"/>
		<path class="st1" d="M12.9,47.7C10.7,47.7,9,46,9,43.9V26.6C9,16.9,16.9,9,26.6,9h20.2c2.1,0,3.8,1.7,3.8,3.8s-1.7,3.8-3.8,3.8
			H26.6c-5.5,0-9.9,4.4-9.9,9.9v17.3C16.7,46,15,47.7,12.9,47.7z"/>
		<path class="st1" d="M115.1,47.7c-2.1,0-3.8-1.7-3.8-3.8V26.6c0-5.5-4-9.9-9-9.9H81.2c-2.1,0-3.8-1.7-3.8-3.8S79.1,9,81.2,9h21.1
			c9.2,0,16.7,7.9,16.7,17.6v17.3C119,46,117.3,47.7,115.1,47.7z"/>
		<path class="st1" d="M102.3,119H83.4c-2.1,0-3.8-1.7-3.8-3.8c0-2.1,1.7-3.8,3.8-3.8h18.9c5,0,9-4.4,9-9.9V84.1
			c0-2.1,1.7-3.8,3.8-3.8c2.1,0,3.8,1.7,3.8,3.8v17.3C119,111.1,111.5,119,102.3,119z"/>
		<g>
			<path class="st1" d="M71.1,68.1V48.5c0-3,2.1-4.7,4.5-4.7c2.4,0,4.5,1.7,4.5,4.7v30.9c0,3-2.6,4.5-4.8,4.7
				c-2.4,0.2-5.2-0.7-6.4-2.8l-12-21.2v19.6c0,2.5-2,4.5-4.5,4.5h0c-2.5,0-4.5-2-4.5-4.5V48.9c0-3,2.6-4.7,4.9-4.9
				c2.4-0.2,5.1,0.7,6.3,2.8L71.1,68.1z"/>
		</g>
	</g>
	<rect class="st0" width="128" height="128"/>
</g>
</svg>
