<?xml version="1.0" encoding="utf-8"?>
<!-- Generator: Adobe Illustrator 25.0.1, SVG Export Plug-In . SVG Version: 6.00 Build 0)  -->
<svg version="1.1" id="Layer_1" xmlns="http://www.w3.org/2000/svg" xmlns:xlink="http://www.w3.org/1999/xlink" x="0px" y="0px"
	 viewBox="0 0 128 128" style="enable-background:new 0 0 128 128;" xml:space="preserve">
<style type="text/css">
	.st0{fill:none;}
	.st1{fill:#FFFFFF;}
	.st2{fill:#B4B4B4;}
	.st3{fill:none;stroke:#FFFFFF;stroke-width:3;stroke-miterlimit:10;}
	.st4{fill:none;stroke:#FFFFFF;stroke-width:3;stroke-linecap:round;stroke-linejoin:round;stroke-miterlimit:10;}
</style>
<g>
	<rect class="st0" width="128" height="128"/>
	<path class="st1" d="M105.9,118.4H22.1c-9.7,0-17.6-7.9-17.6-17.6V27.2c0-9.7,7.9-17.6,17.6-17.6h83.7c9.7,0,17.6,7.9,17.6,17.6
		v73.7C123.4,110.5,115.6,118.4,105.9,118.4z M22.1,17.3c-5.5,0-9.9,4.4-9.9,9.9v73.7c0,5.5,4.4,9.9,9.9,9.9h83.7
		c5.5,0,9.9-4.4,9.9-9.9V27.2c0-5.5-4.4-9.9-9.9-9.9H22.1z"/>
	<path class="st1" d="M64,118.4c-2.1,0-3.8-1.7-3.8-3.8V13.4c0-2.1,1.7-3.8,3.8-3.8c2.1,0,3.8,1.7,3.8,3.8v101.2
		C67.8,116.7,66.1,118.4,64,118.4z"/>
	<path class="st1" d="M64,84.9c-11.5,0-20.9-9.4-20.9-20.9S52.5,43.1,64,43.1S84.9,52.5,84.9,64S75.5,84.9,64,84.9z M64,50.8
		c-7.3,0-13.2,5.9-13.2,13.2S56.7,77.2,64,77.2S77.2,71.3,77.2,64S71.3,50.8,64,50.8z"/>
</g>
</svg>
