<?xml version="1.0" encoding="utf-8"?>
<!-- Generator: Adobe Illustrator 25.0.1, SVG Export Plug-In . SVG Version: 6.00 Build 0)  -->
<svg version="1.1" id="Layer_1" xmlns="http://www.w3.org/2000/svg" xmlns:xlink="http://www.w3.org/1999/xlink" x="0px" y="0px"
	 viewBox="0 0 128 128" style="enable-background:new 0 0 128 128;" xml:space="preserve">
<style type="text/css">
	.st0{fill:none;}
	.st1{fill:#FFFFFF;}
	.st2{fill:#B4B4B4;}
	.st3{fill:none;stroke:#FFFFFF;stroke-width:3;stroke-miterlimit:10;}
	.st4{fill:none;stroke:#FFFFFF;stroke-width:3;stroke-linecap:round;stroke-linejoin:round;stroke-miterlimit:10;}
</style>
<g>
	<g>
		<path class="st1" d="M114.9,33.4H13.1c-2.1,0-3.8-1.7-3.8-3.8s1.7-3.8,3.8-3.8H104L90.8,15.1c-1.7-1.3-1.9-3.7-0.6-5.4
			c1.3-1.7,3.7-1.9,5.4-0.6l21.8,17.4c1.3,1,1.8,2.7,1.2,4.3C118,32.4,116.6,33.4,114.9,33.4z"/>
		<path class="st1" d="M34.8,119.7c-0.8,0-1.7-0.3-2.4-0.8l-21.8-17.4c-1.3-1-1.8-2.7-1.2-4.3c0.5-1.5,2-2.6,3.6-2.6h101.9
			c2.1,0,3.8,1.7,3.8,3.8c0,2.1-1.7,3.8-3.8,3.8H24l13.2,10.6c1.7,1.3,1.9,3.7,0.6,5.4C37.1,119.2,36,119.7,34.8,119.7z"/>
		<g>
			<path class="st1" d="M71.1,68.1V48.5c0-3,2.1-4.7,4.5-4.7c2.4,0,4.5,1.7,4.5,4.7v30.9c0,3-2.6,4.5-4.8,4.7
				c-2.4,0.2-5.2-0.7-6.4-2.8l-12-21.2v19.6c0,2.5-2,4.5-4.5,4.5h0c-2.5,0-4.5-2-4.5-4.5V48.9c0-3,2.6-4.7,4.9-4.9
				c2.4-0.2,5.1,0.7,6.3,2.8L71.1,68.1z"/>
		</g>
	</g>
	<rect class="st0" width="128" height="128"/>
</g>
</svg>
