<?xml version="1.0" encoding="utf-8"?>
<!-- Generator: Adobe Illustrator 25.0.1, SVG Export Plug-In . SVG Version: 6.00 Build 0)  -->
<svg version="1.1" id="Layer_1" xmlns="http://www.w3.org/2000/svg" xmlns:xlink="http://www.w3.org/1999/xlink" x="0px" y="0px"
	 viewBox="0 0 128 128" style="enable-background:new 0 0 128 128;" xml:space="preserve">
<style type="text/css">
	.st0{fill:#FFFFFF;}
	.st1{fill:#FFFFFF;stroke:#222222;stroke-width:8;stroke-linecap:round;stroke-linejoin:round;stroke-miterlimit:10;}
	.st2{fill:none;stroke:#222222;stroke-width:8;stroke-miterlimit:10;}
	.st3{fill:none;stroke:#222222;stroke-width:8;stroke-linecap:round;stroke-linejoin:round;stroke-miterlimit:10;}
	.st4{fill:none;stroke:#222222;stroke-width:8;stroke-linecap:round;stroke-miterlimit:10;}
	.st5{fill:#222222;}
	.st6{fill:#35B975;}
	.st7{fill:#35B975;stroke:#222222;stroke-width:8;stroke-linecap:round;stroke-linejoin:round;stroke-miterlimit:10;}
	.st8{fill:#BBBBBB;}
</style>
<g>
	<path class="st8" d="M107.7,14.7C92,2,64,2.9,64,2.9S36,2,20.3,14.7C5.6,26.6,0.1,53,1.6,87s32,36.8,42.6,37.4
		c0,0,11.8,0.7,19.8,0.7s19.8-0.7,19.8-0.7c10.6-0.6,41.1-3.4,42.6-37.4C127.9,53,122.4,26.6,107.7,14.7z M108.7,80.7
		c0,4.1-3.3,7.4-7.4,7.4H72.8l-5.7,11.6c-0.7,1.4-2.6,1.4-3.3,0L58,88H29.5c-4.1,0-7.4-3.3-7.4-7.4V37.9c0-4.1,3.3-7.4,7.4-7.4h71.9
		c4.1,0,7.4,3.3,7.4,7.4V80.7z"/>
	<path class="st8" d="M42.1,53.2c-1.6,0-3.2,0.5-4.6,1.3v-8.1h-4.8v22.1h4.8v-1.3c1.4,0.8,3,1.3,4.6,1.3c4.2,0,7.6-3.4,7.6-7.6
		S46.3,53.2,42.1,53.2z M41.1,64.5c-2,0-3.6-1.6-3.6-3.6c0-2,1.6-3.6,3.6-3.6c2,0,3.6,1.6,3.6,3.6C44.7,62.9,43.1,64.5,41.1,64.5z"
		/>
	<path class="st8" d="M98.9,53.6h-4.8v1.3c-1.4-0.8-3-1.3-4.6-1.3c-4.2,0-7.6,3.4-7.6,7.6s3.4,7.6,7.6,7.6c1.6,0,3.2-0.5,4.6-1.3
		c0,0-0.3,1.7-1.7,3c-1.2,1.2-3.2,1.1-3.2,1.1v4.4c0,0,4.3,0.9,7.4-2.7c0,0,2.4-1.9,2.4-7.3V53.6z M90.4,57.7c2,0,3.6,1.6,3.6,3.6
		c0,2-1.6,3.6-3.6,3.6c-2,0-3.6-1.6-3.6-3.6C86.8,59.3,88.4,57.7,90.4,57.7z"/>
	<path class="st8" d="M50.8,46.4c0,0,7.9-0.3,7.9,7.6s0,14.5,0,14.5h-5.2V53.2c0,0-0.2-2.3-2.8-2.3V46.4z"/>
	<path class="st8" d="M70.3,53.2c-4.6,0-8.3,3.4-8.3,7.6s3.7,7.6,8.3,7.6c4.6,0,8.3-3.4,8.3-7.6S74.9,53.2,70.3,53.2z M70.3,64.3
		c-1.9,0-3.4-1.5-3.4-3.4c0-1.9,1.5-3.4,3.4-3.4c1.9,0,3.4,1.5,3.4,3.4C73.7,62.7,72.1,64.3,70.3,64.3z"/>
</g>
</svg>
