<?xml version="1.0" encoding="utf-8"?>
<!-- Generator: Adobe Illustrator 25.0.1, SVG Export Plug-In . SVG Version: 6.00 Build 0)  -->
<svg version="1.1" id="Layer_1" xmlns="http://www.w3.org/2000/svg" xmlns:xlink="http://www.w3.org/1999/xlink" x="0px" y="0px"
	 viewBox="0 0 128 128" style="enable-background:new 0 0 128 128;" xml:space="preserve">
<style type="text/css">
	.st0{fill:none;stroke:#efdd0e;stroke-width:6;stroke-linejoin:round;stroke-miterlimit:10;}
	.st1{fill:none;stroke:#efdd0e;stroke-width:6;stroke-miterlimit:10;}
	.st2{fill:none;stroke:#efdd0e;stroke-width:6;stroke-linecap:round;stroke-linejoin:round;stroke-miterlimit:10;}
	.st3{fill:#efdd0e;}
	.st4{fill:#FFFFFF;}
	.st5{fill:none;stroke:#FFFFFF;stroke-width:6;stroke-linejoin:round;stroke-miterlimit:10;}
	.st6{fill:none;stroke:#FFFFFF;stroke-width:6;stroke-miterlimit:10;}
	.st7{fill:none;stroke:#FFFFFF;stroke-width:6;stroke-linecap:round;stroke-linejoin:round;stroke-miterlimit:10;}
</style>
<g>
	<path class="st5" d="M21.2,63.5V14.4C21.2,8.5,26,3.7,32,3.7h55"/>
	<path class="st5" d="M106.8,106.7v6.9c0,5.9-4.8,10.7-10.7,10.7H32c-5.9,0-10.7-4.8-10.7-10.7v-7.7"/>
	<line class="st5" x1="106.8" y1="24.9" x2="106.8" y2="63.5"/>
	<path class="st6" d="M10.1,100.2V71.1c0-4.5,3.7-8.2,8.2-8.2h91.3c4.5,0,8.2,3.7,8.2,8.2v29.1c0,4.5-3.7,8.2-8.2,8.2H18.4
		C13.8,108.4,10.1,104.7,10.1,100.2z"/>
	<path class="st7" d="M88,3.7l18.7,19.9v2.3H90.4c-3.2,0-5.8-2.6-5.8-5.8V3.7H88z"/>
</g>
<g>
	<g>
		<g>
			<path class="st3" d="M33.2,73.5h4.7v25.1h-4.7V73.5z M36,88.8l10.1-15.3h6L36.6,94.9L36,88.8z M40.2,85.9l4.1-2.6l8.8,15.3h-5.6
				L40.2,85.9z"/>
			<path class="st3" d="M59.7,97.7c-1.4-0.8-2.5-1.8-3.2-3.2c-0.8-1.4-1.1-3-1.1-4.9v-7.1c0-1.8,0.4-3.5,1.1-4.9
				c0.8-1.4,1.8-2.5,3.2-3.2c1.4-0.8,3-1.1,4.8-1.1c1.8,0,3.4,0.4,4.8,1.1c1.4,0.8,2.5,1.8,3.2,3.2c0.8,1.4,1.1,3,1.1,4.9v7.1
				c0,1.8-0.4,3.5-1.1,4.9c-0.8,1.4-1.8,2.5-3.2,3.2s-3,1.1-4.8,1.1C62.7,98.9,61.1,98.5,59.7,97.7z M66.8,93.6
				c0.6-0.4,1.1-0.9,1.5-1.5c0.4-0.7,0.5-1.4,0.5-2.3v-7.4c0-0.9-0.2-1.6-0.5-2.3c-0.4-0.7-0.8-1.2-1.5-1.5S65.4,78,64.5,78
				c-0.9,0-1.6,0.2-2.2,0.5s-1.1,0.9-1.5,1.5c-0.4,0.7-0.5,1.4-0.5,2.3v7.4c0,0.9,0.2,1.6,0.5,2.3c0.4,0.7,0.8,1.2,1.5,1.5
				s1.4,0.5,2.2,0.5C65.4,94.1,66.1,93.9,66.8,93.6z"/>
			<path class="st3" d="M78.7,73.5h4.7v25.1h-4.7V73.5z M80.6,83.9h8.7c0.5,0,0.9-0.1,1.3-0.4c0.4-0.2,0.7-0.6,0.9-1
				c0.2-0.4,0.3-1,0.3-1.6c0-0.6-0.1-1.1-0.3-1.6c-0.2-0.4-0.5-0.8-0.9-1c-0.4-0.2-0.8-0.4-1.3-0.4h-8.7v-4.6h9.1
				c1.4,0,2.6,0.3,3.6,0.9s1.9,1.5,2.4,2.6c0.6,1.1,0.9,2.4,0.9,3.9s-0.3,2.8-0.9,3.9c-0.6,1.1-1.4,2-2.4,2.6
				c-1.1,0.6-2.3,0.9-3.6,0.9h-9.1V83.9z M85.8,87.7l5.1-0.8l6.8,11.7h-5.7L85.8,87.7z"/>
		</g>
	</g>
</g>
</svg>
