<?xml version="1.0" encoding="utf-8"?>
<!-- Generator: Adobe Illustrator 25.0.1, SVG Export Plug-In . SVG Version: 6.00 Build 0)  -->
<svg version="1.1" id="Layer_1" xmlns="http://www.w3.org/2000/svg" xmlns:xlink="http://www.w3.org/1999/xlink" x="0px" y="0px"
	 viewBox="0 0 128 128" style="enable-background:new 0 0 128 128;" xml:space="preserve">
<style type="text/css">
	.st0{fill:none;stroke:#efdd0e;stroke-width:6;stroke-linejoin:round;stroke-miterlimit:10;}
	.st1{fill:none;stroke:#efdd0e;stroke-width:6;stroke-miterlimit:10;}
	.st2{fill:none;stroke:#efdd0e;stroke-width:6;stroke-linecap:round;stroke-linejoin:round;stroke-miterlimit:10;}
	.st3{fill:#efdd0e;}
	.st4{fill:#FFFFFF;}
	.st5{fill:none;stroke:#FFFFFF;stroke-width:6;stroke-linejoin:round;stroke-miterlimit:10;}
	.st6{fill:none;stroke:#FFFFFF;stroke-width:6;stroke-miterlimit:10;}
	.st7{fill:none;stroke:#FFFFFF;stroke-width:6;stroke-linecap:round;stroke-linejoin:round;stroke-miterlimit:10;}
</style>
<g>
	<path class="st5" d="M21.2,63.5V14.4C21.2,8.5,26,3.7,32,3.7h55"/>
	<path class="st5" d="M106.8,106.7v6.9c0,5.9-4.8,10.7-10.7,10.7H32c-5.9,0-10.7-4.8-10.7-10.7v-7.7"/>
	<line class="st5" x1="106.8" y1="24.9" x2="106.8" y2="63.5"/>
	<path class="st6" d="M10.1,100.2V71.1c0-4.5,3.7-8.2,8.2-8.2h91.3c4.5,0,8.2,3.7,8.2,8.2v29.1c0,4.5-3.7,8.2-8.2,8.2H18.4
		C13.8,108.4,10.1,104.7,10.1,100.2z"/>
	<path class="st7" d="M88,3.7l18.7,19.9v2.3H90.4c-3.2,0-5.8-2.6-5.8-5.8V3.7H88z"/>
</g>
<g>
	<g>
		<g>
			<path class="st3" d="M33.2,73.5h4.7v25.1h-4.7V73.5z M34.9,73.5H50v4.6H34.9V73.5z M34.9,83.9h13.2v4.6H34.9V83.9z M34.9,94H50
				v4.6H34.9V94z"/>
			<path class="st3" d="M54.3,73.5h5.8l9.3,19.2L69,93.2V73.5h4.5v25.1h-5.8l-9.3-18.9l0.4-0.4v19.4h-4.5V73.5z"/>
			<path class="st3" d="M96.9,84.6v4.9c0,1.9-0.4,3.5-1.1,4.9c-0.8,1.4-1.8,2.5-3.2,3.3s-3,1.2-4.8,1.2c-1.8,0-3.4-0.4-4.8-1.1
				c-1.4-0.7-2.5-1.8-3.2-3.1c-0.8-1.3-1.1-2.9-1.1-4.6v-7.4c0-1.9,0.4-3.5,1.1-4.9s1.8-2.5,3.2-3.3c1.4-0.8,3-1.2,4.8-1.2
				c1.5,0,2.9,0.3,4.1,0.9c1.3,0.6,2.3,1.5,3.2,2.6c0.8,1.1,1.4,2.4,1.7,3.9h-5.1c-0.2-0.5-0.5-1-0.9-1.4c-0.4-0.4-0.9-0.7-1.4-0.9
				c-0.5-0.2-1.1-0.3-1.7-0.3c-0.8,0-1.6,0.2-2.2,0.6s-1.1,0.9-1.5,1.6c-0.4,0.7-0.5,1.5-0.5,2.3V90c0,0.8,0.2,1.5,0.5,2.1
				c0.4,0.6,0.9,1.1,1.5,1.4s1.4,0.5,2.3,0.5c0.9,0,1.6-0.2,2.2-0.5c0.6-0.4,1.1-0.9,1.5-1.5c0.3-0.7,0.5-1.5,0.5-2.4v-0.4h-3.8
				v-4.6H96.9z"/>
		</g>
	</g>
</g>
</svg>
